# xmcd
#
# Track frame offsets: 
#        150
#        14091
#        31499
#        52754
#        73631
#        90183
#        108735
#        126045
#        143838
#        160176
#        173418
#        191681
#        212978
#        235427
#        251633
#
# Disc length: 3640 seconds
#
# Revision: 0
# Processed by: cddbd v1.5.2PL0 Copyright (c) Steve Scherf et al.
# Submitted via: ExactAudioCopyFreeDBPlugin 1.0
#
DISCID=ce0e360f
DTITLE=¡Mayday! - Believers
DYEAR=2013
DGENRE=Hip-Hop
TTITLE0=Believers
TTITLE1=Shots Fired
TTITLE2=Unplug (feat. Kardinal Offishall)
TTITLE3=Last One Standing (feat. Tech N9ne)
TTITLE4=HighRide
TTITLE5=Good Pressure
TTITLE6=My Life (feat. Irv Da Phenom)
TTITLE7=On That Jack
TTITLE8=Tear Shit Down
TTITLE9=Mortuary Mary (feat. Anjuli Stars)
TTITLE10=Save Ferris (feat. David Correy)
TTITLE11=Marathon Man
TTITLE12=Forever New (feat. Stevie Stone)
TTITLE13=Stun Gun Stickup
TTITLE14=Shortcuts And Dead Ends
EXTD=
EXTT0=
EXTT1=
EXTT2=
EXTT3=
EXTT4=
EXTT5=
EXTT6=
EXTT7=
EXTT8=
EXTT9=
EXTT10=
EXTT11=
EXTT12=
EXTT13=
EXTT14=
PLAYORDER=
